# xmcd
#
# Track frame offsets: 
#        150
#        19262
#        38862
#        56734
#        80865
#        97805
#        124876
#        142913
#        162606
#        191176
#        210061
#        223204
#
# Disc length: 3257 seconds
#
# Revision: 0
# Processed by: cddbd v1.5.2PL0 Copyright (c) Steve Scherf et al.
# Submitted via: ExactAudioCopy v1.0b2
#
DISCID=af0cb70c
DTITLE=10cc - How Dare You! (SHM-CD)
DYEAR=1976
DGENRE=Pop/Rock
TTITLE0=How Dare You
TTITLE1=Lazy Ways
TTITLE2=I Wanna Rule The World
TTITLE3=I'm Mandy Fly Me
TTITLE4=Iceberg
TTITLE5=Art For Art's Sake
TTITLE6=Rock'n'Roll Lullaby
TTITLE7=Head Room
TTITLE8=Don't Hang Up
TTITLE9=Art For Art's Sake (Single Edit)
TTITLE10=Get It While You Can
TTITLE11=I'm Mandy Fly Me (Single Edit)
EXTD=
EXTT0=
EXTT1=
EXTT2=
EXTT3=
EXTT4=
EXTT5=
EXTT6=
EXTT7=
EXTT8=
EXTT9=
EXTT10=
EXTT11=
PLAYORDER=
